<svg width="86" height="78" viewBox="0 0 86 78" fill="none" xmlns="http://www.w3.org/2000/svg" >
  <path d="M31.2207 71.1665L30.5547 73.6665H32.0532L31.304 71.1665H31.2207Z" fill="#FFFFFF">
  </path>
  <path d="M45.5386 71.4998C45.4553 71.4165 45.3721 71.4165 45.2056 71.4165C45.1223 71.4165 44.8726 71.4165 44.7061 71.4165C44.4563 71.4165 44.2065 71.4165 44.1233 71.4998C43.9568 71.4998 43.8735 71.6665 43.7903 71.7498C43.707 71.9165 43.707 72.0832 43.707 72.3332V73.4998C43.707 73.7498 43.7903 73.9998 43.7903 74.0832C43.8735 74.2498 43.9568 74.3332 44.1233 74.3332C44.2898 74.3332 44.4563 74.4165 44.7061 74.4165C44.9558 74.4165 45.2056 74.4165 45.3721 74.3332C45.5386 74.2498 45.6218 74.1665 45.7051 74.0832C45.7883 73.9165 45.7883 73.7498 45.7883 73.4998V72.3332C45.7883 72.0832 45.7883 71.9998 45.7051 71.8332C45.7051 71.5832 45.6218 71.4998 45.5386 71.4998Z" fill="#FFFFFF"></path><path d="M10.0728 71.4168C9.98951 71.3335 9.82301 71.3335 9.6565 71.3335H8.57422V73.0002H9.6565C9.82301 73.0002 9.98951 73.0002 10.0728 72.9168C10.156 72.8335 10.2393 72.7502 10.3225 72.6668C10.3225 72.5835 10.4058 72.4168 10.4058 72.1668C10.4058 72.0002 10.4058 71.8335 10.3225 71.6668C10.2393 71.5835 10.156 71.5002 10.0728 71.4168Z" fill="#FFFFFF"></path><path d="M63.2715 71.1665L62.6055 73.6665H64.104L63.438 71.1665H63.2715Z" fill="#FFFFFF"></path><path d="M70.0987 10.4167V67.4167H66.9351V33.4167C63.1055 32.3333 61.1907 31.75 57.3611 30.6667V27.0833C61.1907 28.25 63.1055 28.8333 66.9351 30V9.16667C64.3543 8.16667 63.1055 7.66667 60.5247 6.75V20.9167C59.2759 20.5 58.6099 20.3333 57.3611 19.9167V5.5C54.7803 4.5 53.5315 4.08333 50.9506 3.08333V67.4167H38.213V62.1667H47.787V1.83333L43.0416 0L31.8858 4.25V67.3333H28.7222V5.5C22.3117 7.91667 19.1481 9.16667 12.7377 11.5833V67.3333H6.41045C6.41045 53.6667 6.41045 27.5833 6.41045 20.5C8.32527 19.8333 9.24104 19.5 11.1559 18.8333V12.0833C6.66021 13.75 4.49564 14.6667 0 16.3333V77.9167H86V16.5C79.6728 14 76.5092 12.8333 70.0987 10.4167ZM38.213 9.25C39.4618 8.83333 40.1278 8.58333 41.3766 8.08333V55.6667H38.213V9.25ZM79.9226 69.0833C80.0058 69.1667 80.1723 69.1667 80.4221 69.1667C80.6718 69.1667 80.8383 69.1667 80.9216 69.0833C81.0048 69 81.0881 68.9167 81.0881 68.6667H81.6709C81.6709 69 81.5876 69.1667 81.5044 69.3333C81.4211 69.5 81.2546 69.5833 81.0881 69.6667C80.9216 69.75 80.6718 69.75 80.4221 69.75C80.1723 69.75 79.9226 69.75 79.7561 69.6667C79.5895 69.5833 79.423 69.5 79.3398 69.3333C79.2565 69.1667 79.1733 68.9167 79.1733 68.6667H79.7561C79.8393 68.9167 79.8393 69 79.9226 69.0833ZM76.5092 19.5L79.6728 20.5833V27.1667L76.5092 26.1667V19.5ZM76.5092 32.8333L79.6728 33.75V67.4167H76.5092V32.8333ZM19.1481 16.0833L22.3117 14.9167V62.3333H19.1481V16.0833ZM6.57696 71.3333H4.32914V75.4167H3.08035V70.1667H6.57696V71.3333ZM11.5721 73.0833C11.4889 73.3333 11.4056 73.5 11.3224 73.6667C11.2391 73.8333 10.9894 73.9167 10.8228 74C10.5731 74.0833 10.3233 74.0833 9.90707 74.0833H8.57502V75.4167H7.24298V70.1667H9.82381C10.1568 70.1667 10.4066 70.1667 10.6563 70.25C10.9061 70.3333 11.0726 70.4167 11.1559 70.5833C11.3224 70.75 11.4056 70.9167 11.4889 71.1667C11.5721 71.4167 11.5721 71.6667 11.5721 72.0833C11.6554 72.5 11.6554 72.8333 11.5721 73.0833ZM15.0687 74.25C14.9022 74.5833 14.7357 74.8333 14.5692 75C14.4027 75.1667 14.2362 75.3333 14.0697 75.4167C13.9032 75.5 13.6534 75.5 13.4037 75.5C13.2372 75.5 12.9874 75.5 12.7377 75.4167V74.4167C12.8209 74.4167 12.9874 74.4167 13.1539 74.4167C13.3204 74.4167 13.4037 74.4167 13.4869 74.4167C13.5702 74.4167 13.6534 74.3333 13.7367 74.3333C13.8199 74.25 13.8199 74.1667 13.8199 74.0833L11.9884 70.25H13.4869L14.4027 72.5833H14.5692L15.485 70.25H16.9835L15.0687 74.25ZM22.395 75.5H21.0629V71.4167H19.0649V75.5H17.7328V70.25H22.3117V75.5H22.395ZM28.0561 75.5H26.7241V71.4167H24.726V75.5H23.394V70.25H27.9729V75.5H28.0561ZM32.5518 75.5L32.302 74.5833H30.304L29.971 75.5H28.6389L30.2207 70.25H32.302L33.8838 75.5H32.5518ZM40.4608 75.5L38.9622 73.4167H38.4627V75.5H37.1307V70.25H38.4627V72.25H38.9622L40.3775 70.25H41.9593L40.1278 72.8333L42.1258 75.5H40.4608ZM47.121 73.5833C47.121 74 47.0378 74.3333 46.9545 74.5C46.8713 74.75 46.7047 74.9167 46.455 75.0833C46.2885 75.25 46.0387 75.3333 45.7057 75.3333C45.456 75.4167 45.0397 75.4167 44.7067 75.4167C44.2904 75.4167 43.9574 75.4167 43.7076 75.3333C43.4579 75.25 43.2081 75.1667 42.9584 75.0833C42.7919 74.9167 42.6254 74.75 42.4589 74.5C42.3756 74.25 42.2924 73.9167 42.2924 73.5833V72.0833C42.2924 71.6667 42.3756 71.3333 42.4589 71.0833C42.5421 70.8333 42.7086 70.6667 42.9584 70.5C43.1249 70.3333 43.3746 70.25 43.7076 70.25C43.9574 70.1667 44.3737 70.1667 44.7067 70.1667C45.1229 70.1667 45.456 70.1667 45.7057 70.25C45.9555 70.3333 46.2052 70.4167 46.455 70.5C46.6215 70.6667 46.788 70.8333 46.9545 71.0833C47.0378 71.3333 47.121 71.6667 47.121 72.0833V73.5833ZM54.4472 75.5H53.1985L53.365 71.5V71.4167H53.1985L51.8664 75.5H50.7009L49.3688 71.4167V71.3333H49.1191L49.2856 75.4167H48.0368V70.1667H50.2014L51.2004 73.5H51.3669L52.3659 70.1667H54.5305V75.5H54.4472ZM60.1917 75.5H58.8596V71.4167H56.8616V75.5H55.5295V70.25H60.1084V75.5H60.1917ZM60.5247 67.4167H57.3611V37.8333C58.6099 38.1667 59.2759 38.3333 60.5247 38.6667V67.4167ZM64.6041 75.5L64.3543 74.5833H62.3562L62.1065 75.5H60.7744L62.3562 70.25H64.4376L66.0194 75.5H64.6041ZM71.0978 75.5H69.7657V73.3333H67.7677V75.4167H66.4356V70.1667H67.7677V72.1667H69.7657V70.1667H71.0978V75.5ZM77.092 75.5H75.8432V72H75.6767L74.0949 75.5H72.2633V70.25H73.5121V73.75H73.6786L75.3437 70.25H77.092V75.5ZM83.0029 75.5H81.7541V72H81.5876L80.0058 75.5H78.1742V70.25H79.423V73.75H79.5895L81.2546 70.25H83.0029V75.5Z" fill="#FFFFFF">

</path></svg>
